<svg xmlns:svg="http://www.w3.org/2000/svg" xmlns="http://www.w3.org/2000/svg" width="24" height="24" viewBox="0 0 24 24" version="1.1">
  <path d="M 21,9 Q 21,8.5938 20.703125,8.2969 20.40625,8 20,8 19.59375,8 19.296875,8.2969 19,8.5938 19,9 19,9.4063 19.296875,9.7031 19.59375,10 20,10 20.40625,10 20.703125,9.7031 21,9.4063 21,9 Z m 2,0 Q 23,9.9688 22.445312,10.7344 21.890625,11.5 21,11.8281 L 21,18 q 0,2.4844 -2.054688,4.2422 Q 16.890625,24 14,24 11.109375,24 9.0546875,22.2422 7,20.4844 7,18 L 7,15.9375 Q 4.4375,15.625 2.71875,13.9375 1,12.25 1,10 L 1,2 Q 1,1.5938 1.296875,1.2969 1.59375,1 2,1 2.09375,1 2.25,1.031 2.515625,0.5622 2.984375,0.281 3.453125,0 4,0 4.828125,0 5.4140625,0.5859 6,1.1719 6,2 6,2.8281 5.4140625,3.4141 4.828125,4 4,4 3.484375,4 3,3.7188 L 3,10 Q 3,11.6563 4.46875,12.8281 5.9375,14 8,14 10.0625,14 11.53125,12.8281 13,11.6563 13,10 L 13,3.7188 Q 12.515625,4 12,4 11.171875,4 10.585938,3.4141 10,2.8281 10,2 10,1.1719 10.585938,0.5859 11.171875,0 12,0 12.546875,0 13.015625,0.2813 13.484375,0.5625 13.75,1.0313 13.90625,1 14,1 14.40625,1 14.703125,1.2969 15,1.5938 15,2 l 0,8 q 0,2.25 -1.71875,3.9375 Q 11.5625,15.625 9,15.9375 L 9,18 q 0,1.6563 1.46875,2.8281 Q 11.9375,22 14,22 16.0625,22 17.53125,20.8281 19,19.6563 19,18 l 0,-6.1719 Q 18.109375,11.5 17.554687,10.7344 17,9.9688 17,9 17,7.75 17.875,6.875 18.75,6 20,6 21.25,6 22.125,6.875 23,7.75 23,9 Z" fill="#555" />
</svg>
