<svg xmlns:svg="http://www.w3.org/2000/svg" xmlns="http://www.w3.org/2000/svg" height="24" width="24" viewBox="0 0 24 24" version="1.1">
    <path d="m 1.7142858,4.2841 13.7142862,0 0,1.7143 -13.7142862,0 0,-1.7143 z m 0,6.8572 13.7142862,0 0,1.7143 -13.7142862,0 0,-1.7143 z m 21.0000002,-6 q 0,0.5357 -0.374999,0.9107 -0.375,0.375 -0.910715,0.375 -0.535712,0 -0.910714,-0.375 -0.375001,-0.375 -0.375001,-0.9107 0,-0.5357 0.375001,-0.9107 0.375002,-0.375 0.910714,-0.375 0.535715,0 0.910715,0.375 0.374999,0.375 0.374999,0.9107 z m -21.0000002,12.8571 13.7142862,0 0,1.7143 -13.7142862,0 0,-1.7143 z m 21.0000002,-6 q 0,0.5357 -0.374999,0.9107 -0.375,0.375 -0.910715,0.375 -0.535712,0 -0.910714,-0.375 -0.375001,-0.375 -0.375001,-0.9107 0,-0.5357 0.375001,-0.9107 0.375002,-0.375 0.910714,-0.375 0.535715,0 0.910715,0.375 0.374999,0.375 0.374999,0.9107 z m 0,6.8572 q 0,0.5357 -0.374999,0.9107 -0.375,0.375 -0.910715,0.375 -0.535712,0 -0.910714,-0.375 -0.375001,-0.375 -0.375001,-0.9107 0,-0.5357 0.375001,-0.9107 0.375002,-0.375 0.910714,-0.375 0.535715,0 0.910715,0.375 0.374999,0.375 0.374999,0.9107 z M 24,7.7127 l 0,-5.1428 -24,0 0,5.1428 24,0 z m 0,6.8572 0,-5.1429 -24,0 0,5.1429 24,0 z m 0,6.8571 0,-5.1429 -24,0 0,5.1429 24,0 z" fill="#555" />
</svg>
